<svg width="16" height="16" viewBox="0 0 16 16" fill="none" xmlns="http://www.w3.org/2000/svg">
<path d="M8.00001 15.1666C4.04668 15.1666 0.833344 11.9533 0.833344 7.99998C0.833344 4.04665 4.04668 0.833313 8.00001 0.833313C11.9533 0.833313 15.1667 4.04665 15.1667 7.99998C15.1667 11.9533 11.9533 15.1666 8.00001 15.1666ZM8.00001 1.83331C4.60001 1.83331 1.83334 4.59998 1.83334 7.99998C1.83334 11.4 4.60001 14.1666 8.00001 14.1666C11.4 14.1666 14.1667 11.4 14.1667 7.99998C14.1667 4.59998 11.4 1.83331 8.00001 1.83331Z" fill="white"/>
<path d="M8.16017 11.1666C6.4135 11.1666 4.9935 9.74665 4.9935 7.99998C4.9935 6.25331 6.4135 4.83331 8.16017 4.83331C8.92683 4.83331 9.6735 5.11331 10.2468 5.62665C10.4535 5.80665 10.4735 6.12665 10.2935 6.33331C10.1135 6.53998 9.79351 6.55998 9.58684 6.37998C9.19351 6.03332 8.68683 5.83999 8.16017 5.83999C6.96683 5.83999 5.9935 6.81332 5.9935 8.00665C5.9935 9.19999 6.96683 10.1733 8.16017 10.1733C8.68017 10.1733 9.19351 9.97999 9.58684 9.63332C9.79351 9.45332 10.1135 9.47333 10.2935 9.67999C10.4735 9.88666 10.4535 10.2067 10.2468 10.3867C9.66684 10.8867 8.92683 11.1666 8.16017 11.1666Z" fill="white"/>
</svg>
